<!DOCTYPE svg PUBLIC "-//W3C//DTD SVG 1.1//EN" "http://www.w3.org/Graphics/SVG/1.1/DTD/svg11.dtd">

<!-- Uploaded to: SVG Repo, www.svgrepo.com, Transformed by: SVG Repo Mixer Tools -->
<svg height="100px" width="100px" version="1.1" id="_x32_" xmlns="http://www.w3.org/2000/svg" xmlns:xlink="http://www.w3.org/1999/xlink" viewBox="0 0 512 512" xml:space="preserve" fill="#000000">

<g id="SVGRepo_bgCarrier" stroke-width="0"/>

<g id="SVGRepo_tracerCarrier" stroke-linecap="round" stroke-linejoin="round"/>

<g id="SVGRepo_iconCarrier"> <style type="text/css"> .st0{fill:#ffffff;} </style> <g> <path class="st0" d="M510.971,359.873l-47.456-226.126c-5.332-25.413-27.751-43.604-53.708-43.604h-45.975 c-15.461,0-27.999,12.538-27.999,27.999c0,15.46-12.539,27.999-27.999,27.999h-28.944h-45.782h-28.936 c-15.469,0-28.007-12.538-28.007-27.999v-7.214c0-15.469-12.53-20.785-27.999-20.785h-45.975 c-25.958,0-48.376,18.191-53.708,43.604L1.025,359.873c-2.73,13.034,0.048,26.614,7.686,37.52 c7.638,10.904,19.456,18.167,32.635,20.048l27.471,3.932c19.497,2.778,38.721-6.59,48.553-23.652l49.097-85.295 c5.996-10.409,17.11-16.83,29.12-16.83h120.822c12.018,0,23.115,6.421,29.112,16.83l49.114,85.295 c9.824,17.062,29.049,26.43,48.545,23.652l27.478-3.932c13.18-1.882,24.99-9.144,32.628-20.048 C510.924,386.487,513.71,372.908,510.971,359.873z M172.216,231.726h-34.902v34.894h-27.663v-34.894H74.751v-27.663h34.901v-34.894 h27.663v34.894h34.902V231.726z M391.632,158.633c11.634,0,21.066,9.432,21.066,21.074c0,11.633-9.432,21.065-21.066,21.065 c-11.65,0-21.082-9.432-21.082-21.065C370.55,168.065,379.982,158.633,391.632,158.633z M349.477,242.927 c-11.634,0-21.074-9.439-21.074-21.082c0-11.634,9.44-21.074,21.074-21.074c11.642,0,21.074,9.44,21.074,21.074 C370.55,233.488,361.118,242.927,349.477,242.927z M391.632,285.067c-11.65,0-21.082-9.44-21.082-21.074 c0-11.634,9.432-21.066,21.082-21.066c11.634,0,21.066,9.432,21.066,21.066C412.698,275.627,403.266,285.067,391.632,285.067z M433.763,242.927c-11.633,0-21.065-9.439-21.065-21.082c0-11.634,9.432-21.074,21.065-21.074c11.642,0,21.082,9.44,21.082,21.074 C454.844,233.488,445.405,242.927,433.763,242.927z"/> </g> </g>

</svg>